<svg xmlns="http://www.w3.org/2000/svg" width="14" height="12" viewBox="0 0 14 12">
  <g id="グループ_153" data-name="グループ 153" transform="translate(-8231.525 -5628.53)">
    <path id="パス_291" data-name="パス 291" d="M8236.759,5631.777a1.713,1.713,0,0,0,.947-2.119,1.494,1.494,0,0,0-1.933-1.038,1.711,1.711,0,0,0-.947,2.119A1.493,1.493,0,0,0,8236.759,5631.777Z" fill="#ee8691"/>
    <path id="パス_292" data-name="パス 292" d="M8234.325,5634.373h0a1.768,1.768,0,0,0-.45-2.307,1.445,1.445,0,0,0-2.105.5h0a1.766,1.766,0,0,0,.451,2.306A1.444,1.444,0,0,0,8234.325,5634.373Z" fill="#ee8691"/>
    <path id="パス_293" data-name="パス 293" d="M8240.292,5631.777a1.493,1.493,0,0,0,1.933-1.038,1.711,1.711,0,0,0-.946-2.119,1.5,1.5,0,0,0-1.934,1.038A1.713,1.713,0,0,0,8240.292,5631.777Z" fill="#ee8691"/>
    <path id="パス_294" data-name="パス 294" d="M8238.525,5632.6c-2.405,0-5.06,3.65-4.291,6.248.741,2.508,3.06,1.474,4.291,1.474s3.55,1.034,4.292-1.474C8243.585,5636.247,8240.931,5632.6,8238.525,5632.6Z" fill="#ee8691"/>
    <path id="パス_295" data-name="パス 295" d="M8245.281,5632.561h0a1.446,1.446,0,0,0-2.105-.494,1.768,1.768,0,0,0-.45,2.307h0a1.444,1.444,0,0,0,2.1.494A1.765,1.765,0,0,0,8245.281,5632.561Z" fill="#ee8691"/>
  </g>
</svg>
