<svg xmlns="http://www.w3.org/2000/svg" width="14" height="12" viewBox="0 0 14 12">
  <g id="グループ_554" data-name="グループ 554" transform="translate(-247.525 -5888.53)">
    <path id="パス_347" data-name="パス 347" d="M6652.759,5891.777a1.712,1.712,0,0,0,.947-2.119,1.5,1.5,0,0,0-1.933-1.038,1.712,1.712,0,0,0-.947,2.119A1.494,1.494,0,0,0,6652.759,5891.777Z" transform="translate(-6400)" fill="#95cccf"/>
    <path id="パス_348" data-name="パス 348" d="M6650.325,5894.373h0a1.768,1.768,0,0,0-.45-2.307,1.445,1.445,0,0,0-2.1.5h0a1.765,1.765,0,0,0,.451,2.306A1.443,1.443,0,0,0,6650.325,5894.373Z" transform="translate(-6400)" fill="#95cccf"/>
    <path id="パス_349" data-name="パス 349" d="M6656.292,5891.777a1.494,1.494,0,0,0,1.933-1.038,1.712,1.712,0,0,0-.947-2.119,1.494,1.494,0,0,0-1.933,1.038A1.712,1.712,0,0,0,6656.292,5891.777Z" transform="translate(-6400)" fill="#95cccf"/>
    <path id="パス_350" data-name="パス 350" d="M6654.525,5892.6c-2.4,0-5.059,3.65-4.291,6.248.742,2.508,3.06,1.474,4.291,1.474s3.55,1.034,4.292-1.474C6659.585,5896.247,6656.931,5892.6,6654.525,5892.6Z" transform="translate(-6400)" fill="#95cccf"/>
    <path id="パス_351" data-name="パス 351" d="M6661.281,5892.561h0a1.445,1.445,0,0,0-2.1-.494,1.768,1.768,0,0,0-.45,2.307h0a1.443,1.443,0,0,0,2.1.494A1.765,1.765,0,0,0,6661.281,5892.561Z" transform="translate(-6400)" fill="#95cccf"/>
  </g>
</svg>
