<svg xmlns="http://www.w3.org/2000/svg" viewBox="0 0 14 12">
  <defs>
    <style>
      .cls-1 {
        fill: #fff;
      }
    </style>
  </defs>
  <g id="レイヤー_2" data-name="レイヤー 2">
    <g id="txt">
      <g>
        <path class="cls-1" d="M5.23359,3.2468a1.711,1.711,0,0,0,.94669-2.11866A1.49384,1.49384,0,0,0,4.24746.09049a1.71094,1.71094,0,0,0-.947,2.11839A1.49435,1.49435,0,0,0,5.23359,3.2468Z"/>
        <path class="cls-1" d="M2.79983,5.84317v.0003a1.76728,1.76728,0,0,0-.45074-2.30706,1.44459,1.44459,0,0,0-2.10487.49413v.0003a1.76657,1.76657,0,0,0,.451,2.30623A1.44378,1.44378,0,0,0,2.79983,5.84317Z"/>
        <path class="cls-1" d="M8.7664,3.2468a1.49432,1.49432,0,0,0,1.93307-1.03795A1.711,1.711,0,0,0,9.75253.09046,1.49388,1.49388,0,0,0,7.8197,1.12811,1.71106,1.71106,0,0,0,8.7664,3.2468Z"/>
        <path class="cls-1" d="M7,4.06677c-2.40559,0-5.05991,3.6505-4.29149,6.248C3.45039,12.82254,5.76829,11.789,7,11.789s3.54958,1.03354,4.29147-1.47425C12.0599,7.71727,9.40559,4.06677,7,4.06677Z"/>
        <path class="cls-1" d="M13.75576,4.03081v-.0003A1.44452,1.44452,0,0,0,11.651,3.53638a1.76731,1.76731,0,0,0-.45079,2.30706v-.0003a1.4438,1.4438,0,0,0,2.10459.4939A1.76656,1.76656,0,0,0,13.75576,4.03081Z"/>
      </g>
    </g>
  </g>
</svg>
