<svg xmlns="http://www.w3.org/2000/svg" viewBox="0 0 259.12012 50.48438">
  <defs>
    <style>
      .cls-1 {
        fill: #333;
      }
    </style>
  </defs>
  <g id="レイヤー_2" data-name="レイヤー 2">
    <g id="header">
      <g>
        <g>
          <path class="cls-1" d="M8.417,43.668h6.99219a1.73458,1.73458,0,0,1,1.10352.22461,1.73463,1.73463,0,0,1,.2246,1.10351v3.20313a1.73364,1.73364,0,0,1-.2246,1.10351,1.73129,1.73129,0,0,1-1.10352.22461H2.81152A1.73028,1.73028,0,0,1,1.708,49.30273a1.73033,1.73033,0,0,1-.22461-1.10351V24.19531A1.73132,1.73132,0,0,1,1.708,23.0918a1.73357,1.73357,0,0,1,1.10351-.22461H7.08887a1.73455,1.73455,0,0,1,1.10351.22461A1.73455,1.73455,0,0,1,8.417,24.19531Z"/>
          <path class="cls-1" d="M33.84668,22.06641a14.37119,14.37119,0,0,1,10.918,4.47265,13.60608,13.60608,0,0,1,3.84765,9.72656,14.00294,14.00294,0,0,1-1.93359,7.207,13.64684,13.64684,0,0,1-5.72266,5.41015,15.78765,15.78765,0,0,1-7.22656,1.60157,14.15948,14.15948,0,0,1-10.78125-4.45313,13.9882,13.9882,0,0,1-3.84765-10,13.27825,13.27825,0,0,1,1.93359-6.95313A13.75964,13.75964,0,0,1,26.75684,23.668,15.71189,15.71189,0,0,1,33.84668,22.06641Zm.01953,6.71875a7.1694,7.1694,0,0,0-5.293,2.1875,7.3739,7.3739,0,0,0-2.207,5.39062,7.50305,7.50305,0,0,0,7.5,7.40234,7.46882,7.46882,0,0,0,7.5-7.5,7.12935,7.12935,0,0,0-2.1875-5.293A7.40443,7.40443,0,0,0,33.86621,28.78516Z"/>
          <path class="cls-1" d="M64.19824,39.07812l6.05469-15.21484c.05176-.11719.09766-.22754.13672-.332a1.00678,1.00678,0,0,1,.39062-.55664,2.6323,2.6323,0,0,1,.957-.10742h4.6875a2.80718,2.80718,0,0,1,.918.09765.64258.64258,0,0,1,.41016.64454,2.67019,2.67019,0,0,1-.25391.85937l-10.27343,24.082a2.34149,2.34149,0,0,1-.498.84961,2.22976,2.22976,0,0,1-.98633.127H62.499a2.23235,2.23235,0,0,1-.97656-.127,2.21111,2.21111,0,0,1-.50781-.84961l-10.11719-24.082a2.68912,2.68912,0,0,1-.27344-.85937.60647.60647,0,0,1,.293-.57618,2.28077,2.28077,0,0,1,1.03516-.166h4.72656a2.31262,2.31262,0,0,1,.99609.127,2.14086,2.14086,0,0,1,.48829.86914Z"/>
          <path class="cls-1" d="M87.90918,28.72656v4.45313H94.374a1.73456,1.73456,0,0,1,1.10352.22461,1.73461,1.73461,0,0,1,.22461,1.10351v3.20313a1.73362,1.73362,0,0,1-.22461,1.10351,1.73127,1.73127,0,0,1-1.10352.22461H87.90918V43.668h6.91406a1.73456,1.73456,0,0,1,1.10352.22461,1.73461,1.73461,0,0,1,.22461,1.10351v3.20313a1.73362,1.73362,0,0,1-.22461,1.10351,1.73127,1.73127,0,0,1-1.10352.22461H82.30371a1.73026,1.73026,0,0,1-1.10351-.22461,1.73026,1.73026,0,0,1-.22461-1.10351V24.19531a1.73125,1.73125,0,0,1,.22461-1.10351,1.73355,1.73355,0,0,1,1.10351-.22461H94.82324a1.73456,1.73456,0,0,1,1.10352.22461,1.73461,1.73461,0,0,1,.22461,1.10351v3.20313a1.73362,1.73362,0,0,1-.22461,1.10351,1.73127,1.73127,0,0,1-1.10352.22461Z"/>
          <path class="cls-1" d="M114.335,38.58984l7.07031,9.21875a2.01572,2.01572,0,0,1,.50782.97657q0,.74267-1.34766.74218h-5.50781a2.74486,2.74486,0,0,1-.92774-.08789,2.58725,2.58725,0,0,1-.57617-.73242L107.47949,39.293v8.90625a1.73355,1.73355,0,0,1-.22461,1.10351,1.73125,1.73125,0,0,1-1.10351.22461H101.874a1.73028,1.73028,0,0,1-1.10351-.22461,1.73033,1.73033,0,0,1-.22461-1.10351V24.19531a1.73132,1.73132,0,0,1,.22461-1.10351,1.73357,1.73357,0,0,1,1.10351-.22461h9.45313a11.24212,11.24212,0,0,1,3.80859.5664,7.16051,7.16051,0,0,1,2.73438,1.77735,8.27863,8.27863,0,0,1,2.28515,5.89844,8.6557,8.6557,0,0,1-.65429,3.33984,6.96611,6.96611,0,0,1-1.76758,2.57812A7.773,7.773,0,0,1,114.335,38.58984Zm-6.85547-3.78906h1.28906a5.15071,5.15071,0,0,0,2.96875-.70312,3.32694,3.32694,0,0,0,0-5.19532,5.0949,5.0949,0,0,0-2.96875-.70312h-1.28906Z"/>
          <path class="cls-1" d="M142.4209,25.582,140.917,28.51172a3.03171,3.03171,0,0,1-.46875.752.68266.68266,0,0,1-.48828.166,14.55727,14.55727,0,0,1-2.12891-1.07422,4.61815,4.61815,0,0,0-2.08984-.37109,3.1335,3.1335,0,0,0-2.28516.80078,2.10993,2.10993,0,0,0-.68359,1.52343,1.64423,1.64423,0,0,0,.625,1.3086,4.5849,4.5849,0,0,0,1.21094.74219q.62475.25414,2.94922.9375a10.658,10.658,0,0,1,4.86328,2.65624,6.82534,6.82534,0,0,1,1.67969,4.82422q0,4.59009-2.73438,6.95313a11.44469,11.44469,0,0,1-7.69531,2.5,15.79686,15.79686,0,0,1-4.541-.73242,14.239,14.239,0,0,1-4.0332-1.84571.85645.85645,0,0,1-.42969-.72265,2.75934,2.75934,0,0,1,.35156-.83985l1.67969-3.14453a3.33868,3.33868,0,0,1,.47852-.74219.67233.67233,0,0,1,.47851-.15624.77284.77284,0,0,1,.41016.13671q.21461.137,1.36719.9375a7.0239,7.0239,0,0,0,4.12109,1.21094,3.33134,3.33134,0,0,0,2.63672-.957,2.43294,2.43294,0,0,0,.66406-1.62109,2.05434,2.05434,0,0,0-.85937-1.748,11.79262,11.79262,0,0,0-3.30078-1.35742A15.641,15.641,0,0,1,127.61621,36.5a6.43682,6.43682,0,0,1-2.10937-5.27344,8.64265,8.64265,0,0,1,2.7539-6.69922,8.79178,8.79178,0,0,1,6.19141-2.30468,18.98692,18.98692,0,0,1,4.22851.52734,14.73491,14.73491,0,0,1,3.66211,1.26953.76955.76955,0,0,1,.42969.68359A2.5912,2.5912,0,0,1,142.4209,25.582Z"/>
          <path class="cls-1" d="M172.26465,38.58984l7.07031,9.21875a2.01567,2.01567,0,0,1,.50781.97657q0,.74267-1.34765.74218H172.9873a2.74482,2.74482,0,0,1-.92773-.08789,2.58725,2.58725,0,0,1-.57617-.73242L165.40918,39.293v8.90625a1.73362,1.73362,0,0,1-.22461,1.10351,1.73127,1.73127,0,0,1-1.10352.22461h-4.27734a1.73026,1.73026,0,0,1-1.10351-.22461,1.73026,1.73026,0,0,1-.22461-1.10351V24.19531a1.73125,1.73125,0,0,1,.22461-1.10351,1.73355,1.73355,0,0,1,1.10351-.22461h9.45313a11.24212,11.24212,0,0,1,3.80859.5664,7.16055,7.16055,0,0,1,2.73437,1.77735,8.27859,8.27859,0,0,1,2.28516,5.89844,8.65553,8.65553,0,0,1-.6543,3.33984,6.96609,6.96609,0,0,1-1.76757,2.57812A7.773,7.773,0,0,1,172.26465,38.58984Zm-6.85547-3.78906h1.28906a5.15073,5.15073,0,0,0,2.96875-.70312,3.32694,3.32694,0,0,0,0-5.19532,5.09492,5.09492,0,0,0-2.96875-.70312h-1.28906Z"/>
          <path class="cls-1" d="M190.4873,24.19531V37.30078a24.41109,24.41109,0,0,0,.127,3.10547,4.55325,4.55325,0,0,0,.63476,1.66016,4.1378,4.1378,0,0,0,3.86719,2.03125,5.06477,5.06477,0,0,0,2.41211-.58594,3.92144,3.92144,0,0,0,1.65039-1.582,5.02925,5.02925,0,0,0,.56641-1.66016,22.104,22.104,0,0,0,.13672-2.96875V24.19531a1.73125,1.73125,0,0,1,.22461-1.10351,1.73355,1.73355,0,0,1,1.10351-.22461h4.27734a1.73456,1.73456,0,0,1,1.10352.22461,1.73461,1.73461,0,0,1,.22461,1.10351v14.043a13.58829,13.58829,0,0,1-1.01563,5.87891,10.38547,10.38547,0,0,1-4.60937,4.72656,13.23584,13.23584,0,0,1-6.17188,1.36719,13.484,13.484,0,0,1-6.97265-1.73828,8.06737,8.06737,0,0,1-3.48633-3.75,16.678,16.678,0,0,1-1.00586-6.48438v-14.043a1.73132,1.73132,0,0,1,.22461-1.10351,1.73359,1.73359,0,0,1,1.10352-.22461h4.27734a1.73458,1.73458,0,0,1,1.10352.22461A1.73463,1.73463,0,0,1,190.4873,24.19531Z"/>
          <path class="cls-1" d="M229.19824,25.582l-1.5039,2.92969a3.03231,3.03231,0,0,1-.46875.752.68268.68268,0,0,1-.48829.166,14.55806,14.55806,0,0,1-2.1289-1.07422,4.6182,4.6182,0,0,0-2.08985-.37109,3.13346,3.13346,0,0,0-2.28515.80078,2.1099,2.1099,0,0,0-.6836,1.52343,1.64423,1.64423,0,0,0,.625,1.3086,4.5849,4.5849,0,0,0,1.21094.74219q.62476.25414,2.94922.9375a10.658,10.658,0,0,1,4.86328,2.65624,6.82534,6.82534,0,0,1,1.67969,4.82422q0,4.59009-2.73438,6.95313a11.44469,11.44469,0,0,1-7.69531,2.5,15.79674,15.79674,0,0,1-4.541-.73242,14.239,14.239,0,0,1-4.03321-1.84571.85644.85644,0,0,1-.42968-.72265,2.75906,2.75906,0,0,1,.35156-.83985l1.67969-3.14453a3.33839,3.33839,0,0,1,.47851-.74219.67234.67234,0,0,1,.47852-.15624.77284.77284,0,0,1,.41015.13671q.2146.137,1.36719.9375a7.02392,7.02392,0,0,0,4.12109,1.21094,3.33133,3.33133,0,0,0,2.63672-.957,2.43291,2.43291,0,0,0,.66407-1.62109,2.05435,2.05435,0,0,0-.85938-1.748,11.79262,11.79262,0,0,0-3.30078-1.35742A15.641,15.641,0,0,1,214.39355,36.5a6.43682,6.43682,0,0,1-2.10937-5.27344,8.64265,8.64265,0,0,1,2.75391-6.69922,8.79174,8.79174,0,0,1,6.1914-2.30468A18.98707,18.98707,0,0,1,225.458,22.75a14.73506,14.73506,0,0,1,3.66211,1.26953.76956.76956,0,0,1,.42968.68359A2.591,2.591,0,0,1,229.19824,25.582Z"/>
          <path class="cls-1" d="M242.18652,33.16016h10V24.19531a1.73132,1.73132,0,0,1,.22461-1.10351,1.73361,1.73361,0,0,1,1.10352-.22461H257.792a1.73456,1.73456,0,0,1,1.10352.22461,1.73461,1.73461,0,0,1,.22461,1.10351V48.19922a1.73362,1.73362,0,0,1-.22461,1.10351,1.73127,1.73127,0,0,1-1.10352.22461h-4.27734a1.73032,1.73032,0,0,1-1.10352-.22461,1.73033,1.73033,0,0,1-.22461-1.10351V38.55078h-10v9.64844a1.73355,1.73355,0,0,1-.22461,1.10351,1.73123,1.73123,0,0,1-1.10351.22461h-4.27735a1.73028,1.73028,0,0,1-1.10351-.22461,1.73033,1.73033,0,0,1-.22461-1.10351V24.19531a1.73132,1.73132,0,0,1,.22461-1.10351,1.73357,1.73357,0,0,1,1.10351-.22461h4.27735a1.73453,1.73453,0,0,1,1.10351.22461,1.73455,1.73455,0,0,1,.22461,1.10351Z"/>
        </g>
        <g>
          <path class="cls-1" d="M7.96484,3.43457c1.25977,1.7251,2.59473,3.55469,5.1294,6.55469.42041.49512.6001.72021.6001,1.14013a1.4213,1.4213,0,0,1-1.31983,1.395c-.51025,0-.70508,0-3.50976-3.75-.48-.62988-2.49024-3.46484-2.895-4.03466-.12012-.14991-.21-.27-.375-.27-.18018,0-.2251.06006-.585.56982-.31495.43506-2.11475,2.96973-2.69971,3.645a1.09036,1.09036,0,0,1-.915.49463A1.42744,1.42744,0,0,1,0,7.88965c0-.375.01514-.39014,1.18506-1.83008.77978-.96,1.93457-2.5498,2.68457-3.5249A2.13874,2.13874,0,0,1,5.60986,1.52979C6.56982,1.52979,6.8999,1.97949,7.96484,3.43457Zm6.0293-.44971A2.16725,2.16725,0,1,1,11.83447.82471,2.16013,2.16013,0,0,1,13.99414,2.98486Zm-3.25439,0a1.10086,1.10086,0,0,0,1.09472,1.09473,1.08742,1.08742,0,1,0-1.09472-1.09473Z"/>
          <path class="cls-1" d="M17.87988,3.80957c.50977,0,.67481.28516,1.06494.94482.88477,1.47022.915,1.71.915,1.9502a1.11944,1.11944,0,0,1-1.16992.9751c-.48,0-.55517-.15039-1.08008-1.15528-.105-.21-.645-1.10986-.75-1.29a.99506.99506,0,0,1-.13476-.46485C16.7251,4.07959,17.5498,3.80957,17.87988,3.80957Zm6.80957,6.48A8.845,8.845,0,0,1,19.69482,13.499a1.15067,1.15067,0,0,1-1.02-1.16992c0-.55469.21-.645,1.16993-1.07959a7.85517,7.85517,0,0,0,4.875-6.375c.165-.8999.27-1.43994,1.09472-1.43994a1.652,1.652,0,0,1,.855.27.83172.83172,0,0,1,.315.68994A12.3849,12.3849,0,0,1,24.68945,10.28955ZM20.89453,3.08984c.49512,0,.70508.27,1.16992,1.125a5.83532,5.83532,0,0,1,.75,1.81446,1.09067,1.09067,0,0,1-1.13965.99023c-.5249,0-.62988-.2251-1.08007-1.18506a12.65046,12.65046,0,0,0-.66016-1.24463,1.10835,1.10835,0,0,1-.17969-.55517A1.07543,1.07543,0,0,1,20.89453,3.08984Z"/>
          <path class="cls-1" d="M36.1499,12.4043c0,.34472-.01513,1.21484-1.23,1.21484-1.18506,0-1.24512-.75-1.24512-1.21484V1.21484C33.6748.855,33.6748,0,34.91992,0c1.21485,0,1.23.83984,1.23,1.21484V4.13965a34.9745,34.9745,0,0,1,5.30957,2.75976c.54.35987.87012.6753.87012,1.15528a1.333,1.333,0,0,1-1.2002,1.36474c-.41992,0-.65966-.165-1.46972-.70507A28.128,28.128,0,0,0,36.1499,6.80957Z"/>
          <path class="cls-1" d="M47.74463,1.49951A1.01476,1.01476,0,0,1,48.8999.38965c.83985,0,1.21485.375,1.21485,1.10986V3.41943h3.435V1.12451c0-.855.53956-1.09472,1.16993-1.09472.83984,0,1.21484.375,1.21484,1.09472V3.41943h1.45508a1.06433,1.06433,0,0,1,1.18457,1.14014,1.05885,1.05885,0,0,1-1.18457,1.18506H55.93457V6.4043a7.27218,7.27218,0,0,1-1.51514,5.085,5.64334,5.64334,0,0,1-3.04492,1.95019,1.23561,1.23561,0,0,1-1.18457-1.23c0-.52539.28467-.68994.97461-1.08008,2.1001-1.18505,2.38525-2.80517,2.38525-4.605V5.74463h-3.435V8.30957A1.00449,1.00449,0,0,1,48.96,9.41943c-.78027,0-1.21533-.31494-1.21533-1.10986V5.74463H46.30469a1.05239,1.05239,0,0,1-1.18457-1.15479,1.06249,1.06249,0,0,1,1.18457-1.17041h1.43994Z"/>
          <path class="cls-1" d="M72.59961,10.33447c0,1.73975-.93018,2.04-2.04,2.04H63.1499c-1.52978,0-2.04-.69043-2.04-2.04V3.44971c0-1.73975.93018-2.04,2.04-2.04h7.40967c1.48486,0,2.04.62988,2.04,2.04Zm-9.105-.78027a.422.422,0,0,0,.48.48h5.75977a.41655.41655,0,0,0,.48-.48V4.21484a.42814.42814,0,0,0-.48-.48H63.97461a.42823.42823,0,0,0-.48.48Z"/>
          <path class="cls-1" d="M88.33447,5.14453c0,.79492-2.085,3.54-4.75488,5.3999a14.60591,14.60591,0,0,1-6.105,2.59473,1.3124,1.3124,0,0,1-1.2749-1.40967c0-.855.51025-.9751,1.36523-1.18506a14.26012,14.26012,0,0,0,8.03955-5.47509c.70508-.97461.855-1.18457,1.36475-1.18457A1.46368,1.46368,0,0,1,88.33447,5.14453Zm-8.72949-3.27c1.58984.73535,1.97949,1.05029,1.97949,1.69531a1.31908,1.31908,0,0,1-1.1997,1.34961c-.25489,0-.27-.01464-1.45508-.62988-.35987-.18017-1.94971-.88476-2.25-1.08008a.89207.89207,0,0,1-.43457-.79492,1.26015,1.26015,0,0,1,1.21484-1.29A8.97391,8.97391,0,0,1,79.605,1.87451Z"/>
        </g>
      </g>
    </g>
  </g>
</svg>
