<svg xmlns="http://www.w3.org/2000/svg" viewBox="0 0 257.63672 50.48438">
  <defs>
    <style>
      .cls-1 {
        fill: #333;
      }
    </style>
  </defs>
  <g id="レイヤー_2" data-name="レイヤー 2">
    <g id="footer">
      <g>
        <path class="cls-1" d="M6.93359,43.668h6.99219a1.729,1.729,0,0,1,1.10352.22461,1.73364,1.73364,0,0,1,.22461,1.10351v3.20313a1.73557,1.73557,0,0,1-.22461,1.10351,1.73554,1.73554,0,0,1-1.10352.22461H1.32812a1.73357,1.73357,0,0,1-1.10351-.22461A1.729,1.729,0,0,1,0,48.19922V24.19531A1.72707,1.72707,0,0,1,.22461,23.0918a1.72707,1.72707,0,0,1,1.10351-.22461H5.60547A1.729,1.729,0,0,1,6.709,23.0918a1.73357,1.73357,0,0,1,.22461,1.10351Z"/>
        <path class="cls-1" d="M32.36328,22.06641a14.36839,14.36839,0,0,1,10.918,4.47265,13.60814,13.60814,0,0,1,3.84766,9.72656,14.008,14.008,0,0,1-1.9336,7.207,13.65863,13.65863,0,0,1-5.72265,5.41015,15.80024,15.80024,0,0,1-7.22657,1.60157,14.158,14.158,0,0,1-10.78125-4.45313,13.99062,13.99062,0,0,1-3.84765-10,13.277,13.277,0,0,1,1.93359-6.95313A13.75656,13.75656,0,0,1,25.27344,23.668,15.69911,15.69911,0,0,1,32.36328,22.06641Zm.01953,6.71875a7.16492,7.16492,0,0,0-5.293,2.1875,7.3739,7.3739,0,0,0-2.207,5.39062,7.50305,7.50305,0,0,0,7.5,7.40234,7.46882,7.46882,0,0,0,7.5-7.5,7.12707,7.12707,0,0,0-2.1875-5.293A7.40043,7.40043,0,0,0,32.38281,28.78516Z"/>
        <path class="cls-1" d="M62.71484,39.07812l6.05469-15.21484c.05176-.11719.09766-.22851.13672-.332a1.003,1.003,0,0,1,.39063-.55664,2.60788,2.60788,0,0,1,.957-.10742h4.6875a2.7954,2.7954,0,0,1,.918.09765.64259.64259,0,0,1,.41015.64454,2.6802,2.6802,0,0,1-.25391.85937l-10.27343,24.082a2.36588,2.36588,0,0,1-.498.84961,2.24651,2.24651,0,0,1-.98633.127H61.01562a2.24636,2.24636,0,0,1-.97656-.127,2.21341,2.21341,0,0,1-.50781-.84961l-10.11719-24.082a2.693,2.693,0,0,1-.27344-.85937.606.606,0,0,1,.293-.57618,2.26741,2.26741,0,0,1,1.03516-.166h4.72656a2.3077,2.3077,0,0,1,.9961.127,2.12926,2.12926,0,0,1,.48828.86914Z"/>
        <path class="cls-1" d="M86.42578,28.72656v4.45313h6.46484a1.729,1.729,0,0,1,1.10352.22461,1.73364,1.73364,0,0,1,.22461,1.10351v3.20313a1.73557,1.73557,0,0,1-.22461,1.10351,1.73554,1.73554,0,0,1-1.10352.22461H86.42578V43.668h6.91406a1.729,1.729,0,0,1,1.10352.22461,1.73364,1.73364,0,0,1,.22461,1.10351v3.20313a1.73557,1.73557,0,0,1-.22461,1.10351,1.73554,1.73554,0,0,1-1.10352.22461H80.82031a1.73357,1.73357,0,0,1-1.10351-.22461,1.729,1.729,0,0,1-.22461-1.10351V24.19531a1.72707,1.72707,0,0,1,.22461-1.10351,1.72707,1.72707,0,0,1,1.10351-.22461H93.33984a1.729,1.729,0,0,1,1.10352.22461,1.73364,1.73364,0,0,1,.22461,1.10351v3.20313a1.73557,1.73557,0,0,1-.22461,1.10351,1.73554,1.73554,0,0,1-1.10352.22461Z"/>
        <path class="cls-1" d="M112.85156,38.58984l7.07032,9.21875a2.01431,2.01431,0,0,1,.50781.97657q0,.74121-1.34766.74218h-5.50781a2.74494,2.74494,0,0,1-.92774-.08789,2.57828,2.57828,0,0,1-.57617-.73242L105.99609,39.293v8.90625a1.7355,1.7355,0,0,1-.22461,1.10351,1.7355,1.7355,0,0,1-1.10351.22461h-4.27735a1.73357,1.73357,0,0,1-1.10351-.22461,1.729,1.729,0,0,1-.22461-1.10351V24.19531a1.72707,1.72707,0,0,1,.22461-1.10351,1.72707,1.72707,0,0,1,1.10351-.22461h9.45313a11.23,11.23,0,0,1,3.80859.5664,7.14722,7.14722,0,0,1,2.73438,1.77735,8.27617,8.27617,0,0,1,2.28516,5.89844,8.66478,8.66478,0,0,1-.6543,3.33984A6.96611,6.96611,0,0,1,116.25,37.02734,7.79479,7.79479,0,0,1,112.85156,38.58984Zm-6.85547-3.78906h1.28907a5.15182,5.15182,0,0,0,2.96875-.70312,3.32694,3.32694,0,0,0,0-5.19532,5.09494,5.09494,0,0,0-2.96875-.70312h-1.28907Z"/>
        <path class="cls-1" d="M140.9375,25.582l-1.50391,2.92969a3.05184,3.05184,0,0,1-.46875.752.68481.68481,0,0,1-.48828.166,14.61873,14.61873,0,0,1-2.1289-1.07422,4.6063,4.6063,0,0,0-2.08985-.37109,3.13146,3.13146,0,0,0-2.28515.80078,2.10666,2.10666,0,0,0-.6836,1.52343,1.64492,1.64492,0,0,0,.625,1.3086,4.62386,4.62386,0,0,0,1.21094.74219q.624.25341,2.94922.9375a10.64462,10.64462,0,0,1,4.86328,2.65624,6.8259,6.8259,0,0,1,1.67969,4.82422q0,4.58936-2.73438,6.95313a11.44974,11.44974,0,0,1-7.69531,2.5,15.79686,15.79686,0,0,1-4.541-.73242,14.239,14.239,0,0,1-4.0332-1.84571.856.856,0,0,1-.42969-.72265,2.75435,2.75435,0,0,1,.35157-.83985l1.67968-3.14453a3.2959,3.2959,0,0,1,.47852-.74219.66933.66933,0,0,1,.47852-.15624.76454.76454,0,0,1,.41015.13671q.21387.13623,1.36719.9375a7.02986,7.02986,0,0,0,4.12109,1.21094,3.33435,3.33435,0,0,0,2.63672-.957,2.43481,2.43481,0,0,0,.66406-1.62109,2.055,2.055,0,0,0-.85937-1.748,11.75436,11.75436,0,0,0-3.30078-1.35742A15.65781,15.65781,0,0,1,126.13281,36.5a6.43813,6.43813,0,0,1-2.10937-5.27344,8.64125,8.64125,0,0,1,2.7539-6.69922,8.78661,8.78661,0,0,1,6.19141-2.30468,18.98707,18.98707,0,0,1,4.22852.52734,14.72956,14.72956,0,0,1,3.66211,1.26953.768.768,0,0,1,.42968.68359A2.60615,2.60615,0,0,1,140.9375,25.582Z"/>
        <path class="cls-1" d="M170.78125,38.58984l7.07031,9.21875a2.01435,2.01435,0,0,1,.50782.97657q0,.74121-1.34766.74218h-5.50781a2.74486,2.74486,0,0,1-.92774-.08789A2.57809,2.57809,0,0,1,170,48.707L163.92578,39.293v8.90625a1.7355,1.7355,0,0,1-.22461,1.10351,1.73552,1.73552,0,0,1-1.10351.22461h-4.27735a1.73357,1.73357,0,0,1-1.10351-.22461,1.729,1.729,0,0,1-.22461-1.10351V24.19531a1.72707,1.72707,0,0,1,.22461-1.10351,1.72707,1.72707,0,0,1,1.10351-.22461h9.45313a11.23,11.23,0,0,1,3.80859.5664,7.14722,7.14722,0,0,1,2.73438,1.77735,8.2762,8.2762,0,0,1,2.28515,5.89844,8.66477,8.66477,0,0,1-.65429,3.33984,6.96611,6.96611,0,0,1-1.76758,2.57812A7.79484,7.79484,0,0,1,170.78125,38.58984Zm-6.85547-3.78906h1.28906a5.15177,5.15177,0,0,0,2.96875-.70312,3.32694,3.32694,0,0,0,0-5.19532,5.0949,5.0949,0,0,0-2.96875-.70312h-1.28906Z"/>
        <path class="cls-1" d="M189.00391,24.19531V37.30078a24.41169,24.41169,0,0,0,.127,3.10547,4.551,4.551,0,0,0,.63476,1.66016,4.13961,4.13961,0,0,0,3.86719,2.03125,5.06616,5.06616,0,0,0,2.41211-.58594,3.92421,3.92421,0,0,0,1.65039-1.582,5.0479,5.0479,0,0,0,.56641-1.66016,22.114,22.114,0,0,0,.13672-2.96875V24.19531a1.72707,1.72707,0,0,1,.22461-1.10351,1.727,1.727,0,0,1,1.10351-.22461h4.27735a1.729,1.729,0,0,1,1.10351.22461,1.73357,1.73357,0,0,1,.22461,1.10351v14.043a13.58994,13.58994,0,0,1-1.01562,5.87891,10.395,10.395,0,0,1-4.60938,4.72656,13.24775,13.24775,0,0,1-6.17187,1.36719,13.48874,13.48874,0,0,1-6.97266-1.73828,8.06691,8.06691,0,0,1-3.48633-3.75,16.683,16.683,0,0,1-1.00586-6.48438v-14.043a1.72707,1.72707,0,0,1,.22461-1.10351,1.7271,1.7271,0,0,1,1.10352-.22461h4.27734a1.729,1.729,0,0,1,1.10352.22461A1.73364,1.73364,0,0,1,189.00391,24.19531Z"/>
        <path class="cls-1" d="M227.71484,25.582l-1.5039,2.92969a3.05215,3.05215,0,0,1-.46875.752.68484.68484,0,0,1-.48828.166,14.6185,14.6185,0,0,1-2.12891-1.07422,4.60628,4.60628,0,0,0-2.08984-.37109,3.13148,3.13148,0,0,0-2.28516.80078,2.10669,2.10669,0,0,0-.68359,1.52343,1.64489,1.64489,0,0,0,.625,1.3086,4.62365,4.62365,0,0,0,1.21093.74219q.624.25341,2.94922.9375a10.64457,10.64457,0,0,1,4.86328,2.65624,6.8259,6.8259,0,0,1,1.67969,4.82422q0,4.58936-2.73437,6.95313a11.44978,11.44978,0,0,1-7.69532,2.5,15.79674,15.79674,0,0,1-4.541-.73242,14.239,14.239,0,0,1-4.03321-1.84571.856.856,0,0,1-.42968-.72265,2.75421,2.75421,0,0,1,.35156-.83985l1.67969-3.14453a3.29634,3.29634,0,0,1,.47851-.74219.66933.66933,0,0,1,.47852-.15624.76459.76459,0,0,1,.41016.13671q.21386.13623,1.36718.9375a7.02989,7.02989,0,0,0,4.1211,1.21094,3.33436,3.33436,0,0,0,2.63672-.957,2.43481,2.43481,0,0,0,.66406-1.62109,2.05493,2.05493,0,0,0-.85938-1.748,11.75436,11.75436,0,0,0-3.30078-1.35742A15.65773,15.65773,0,0,1,212.91016,36.5a6.43813,6.43813,0,0,1-2.10938-5.27344,8.64123,8.64123,0,0,1,2.75391-6.69922,8.78658,8.78658,0,0,1,6.1914-2.30468,18.98693,18.98693,0,0,1,4.22852.52734,14.72942,14.72942,0,0,1,3.66211,1.26953.768.768,0,0,1,.42969.68359A2.60626,2.60626,0,0,1,227.71484,25.582Z"/>
        <path class="cls-1" d="M240.70312,33.16016h10V24.19531a1.72707,1.72707,0,0,1,.22461-1.10351,1.7271,1.7271,0,0,1,1.10352-.22461h4.27734a1.729,1.729,0,0,1,1.10352.22461,1.73364,1.73364,0,0,1,.22461,1.10351V48.19922a1.73557,1.73557,0,0,1-.22461,1.10351,1.73554,1.73554,0,0,1-1.10352.22461h-4.27734a1.73361,1.73361,0,0,1-1.10352-.22461,1.729,1.729,0,0,1-.22461-1.10351V38.55078h-10v9.64844a1.73559,1.73559,0,0,1-.2246,1.10351,1.73556,1.73556,0,0,1-1.10352.22461h-4.27734a1.73359,1.73359,0,0,1-1.10352-.22461,1.729,1.729,0,0,1-.22461-1.10351V24.19531a1.72707,1.72707,0,0,1,.22461-1.10351,1.72708,1.72708,0,0,1,1.10352-.22461H239.375a1.729,1.729,0,0,1,1.10352.22461,1.73366,1.73366,0,0,1,.2246,1.10351Z"/>
      </g>
      <g>
        <path class="cls-1" d="M92.48145,3.43359c1.25976,1.72559,2.59472,3.55469,5.1289,6.55469.4209.4961.60059.7207.60059,1.14063a1.42089,1.42089,0,0,1-1.32032,1.39453c-.50976,0-.70507,0-3.50976-3.75-.47949-.62891-2.49024-3.46485-2.89453-4.03418-.12012-.14942-.21-.27051-.375-.27051-.18067,0-.22559.06055-.585.57031-.31543.43555-2.11524,2.96973-2.7002,3.64453a1.08923,1.08923,0,0,1-.915.49512,1.42737,1.42737,0,0,1-1.39453-1.29c0-.375.01465-.38965,1.18457-1.83008.78028-.959,1.93457-2.54882,2.68457-3.52441A2.13937,2.13937,0,0,1,90.126,1.5293C91.08594,1.5293,91.416,1.97852,92.48145,3.43359Zm6.02929-.44921A2.16749,2.16749,0,1,1,96.35059.82422,2.161,2.161,0,0,1,98.51074,2.98438Zm-3.25488,0A1.10118,1.10118,0,0,0,96.35059,4.0791a1.08742,1.08742,0,1,0-1.09473-1.09472Z"/>
        <path class="cls-1" d="M102.39648,3.80859c.50977,0,.67481.28516,1.06446.94532.88476,1.4707.915,1.71.915,1.95019a1.11913,1.11913,0,0,1-1.16993.97559c-.47949,0-.55468-.15039-1.08007-1.15625-.1045-.209-.64453-1.10938-.75-1.28906a.99774.99774,0,0,1-.13477-.46485C101.24121,4.0791,102.06641,3.80859,102.39648,3.80859Zm6.80957,6.48047a8.84374,8.84374,0,0,1-4.99511,3.209,1.14992,1.14992,0,0,1-1.01953-1.16993c0-.55468.21-.64453,1.16992-1.0791a7.85517,7.85517,0,0,0,4.875-6.375c.165-.89941.26953-1.44043,1.09472-1.44043a1.6505,1.6505,0,0,1,.8545.27051.83255.83255,0,0,1,.31543.69043A12.38379,12.38379,0,0,1,109.20605,10.28906Zm-3.79492-7.19922c.49512,0,.70508.26954,1.16992,1.125a5.83754,5.83754,0,0,1,.75,1.81446,1.09171,1.09171,0,0,1-1.13964.99023c-.52539,0-.62989-.22558-1.08008-1.18555a12.71786,12.71786,0,0,0-.66016-1.24414,1.109,1.109,0,0,1-.17969-.55566A1.07467,1.07467,0,0,1,105.41113,3.08984Z"/>
        <path class="cls-1" d="M120.666,12.4043c0,.34375-.01465,1.21484-1.2295,1.21484-1.18554,0-1.24511-.75-1.24511-1.21484V1.21484c0-.36035,0-1.21484,1.24511-1.21484,1.21485,0,1.2295.83984,1.2295,1.21484V4.13867a35.03982,35.03982,0,0,1,5.30957,2.75977c.54.36035.87011.67578.87011,1.15625A1.3325,1.3325,0,0,1,125.64551,9.419c-.41992,0-.65918-.165-1.46973-.70508A28.16384,28.16384,0,0,0,120.666,6.80859Z"/>
        <path class="cls-1" d="M132.26074,1.499A1.01491,1.01491,0,0,1,133.416.38867c.83984,0,1.21484.375,1.21484,1.11035V3.419h3.43555V1.124c0-.85449.53906-1.09472,1.16992-1.09472.83984,0,1.21484.375,1.21484,1.09472V3.419h1.45508a1.06439,1.06439,0,0,1,1.18457,1.13964,1.05918,1.05918,0,0,1-1.18457,1.18555h-1.45508V6.4043a7.26625,7.26625,0,0,1-1.51562,5.084,5.6462,5.6462,0,0,1-3.04493,1.95117,1.2364,1.2364,0,0,1-1.18457-1.23047c0-.52539.28516-.68945.97461-1.08007,2.10059-1.18555,2.38575-2.80469,2.38575-4.60547v-.7793h-3.43555V8.30859a1.00426,1.00426,0,0,1-1.1543,1.11036c-.78027,0-1.21582-.31543-1.21582-1.11036V5.74414h-1.43945a1.05244,1.05244,0,0,1-1.18457-1.1543A1.06282,1.06282,0,0,1,130.82129,3.419h1.43945Z"/>
        <path class="cls-1" d="M157.11621,10.334c0,1.74024-.93066,2.04-2.04,2.04H147.666c-1.5293,0-2.04-.69043-2.04-2.04V3.44922c0-1.74024.93066-2.04,2.04-2.04h7.41015c1.48438,0,2.04.62988,2.04,2.04Zm-9.10547-.78027a.42219.42219,0,0,0,.48047.47949H154.251c.33007,0,.47949-.14941.47949-.47949V4.21484a.42794.42794,0,0,0-.47949-.48046h-5.75977a.42893.42893,0,0,0-.48047.48046Z"/>
        <path class="cls-1" d="M172.85059,5.14453c0,.79492-2.085,3.53906-4.75489,5.39942a14.60245,14.60245,0,0,1-6.10449,2.59472,1.31293,1.31293,0,0,1-1.27539-1.41015c0-.8545.51074-.97461,1.36523-1.18457a14.25336,14.25336,0,0,0,8.04-5.47559c.70508-.97461.8545-1.18359,1.36426-1.18359A1.46276,1.46276,0,0,1,172.85059,5.14453ZM164.12109,1.874c1.58985.73536,1.9795,1.04981,1.9795,1.69532A1.31869,1.31869,0,0,1,164.90137,4.919c-.25489,0-.27051-.01465-1.45508-.62989-.36035-.17968-1.9502-.88476-2.25-1.08008a.89338.89338,0,0,1-.43457-.79492,1.26015,1.26015,0,0,1,1.21484-1.29A8.97661,8.97661,0,0,1,164.12109,1.874Z"/>
      </g>
    </g>
  </g>
</svg>
