<svg xmlns="http://www.w3.org/2000/svg" width="126.127" height="38.154" viewBox="0 0 126.127 38.154">
  <g id="グループ_550" data-name="グループ 550" transform="translate(-166.584 -83.496)">
    <text id="_0767-52-8215" data-name="0767-52-8215" transform="translate(292.684 101.496)" fill="#3a3a3a" font-size="17.1" font-family="Roboto-Black, Roboto" font-weight="800"><tspan x="-114.406" y="0">0767-52-8215</tspan></text>
    <text id="AM9:00-PM7:00年中無休" transform="translate(292.711 118.65)" fill="#3a3a3a" font-size="11" font-family="Helvetica"><tspan x="-123.481" y="0">AM9:00-PM7:00</tspan><tspan y="0" font-family="HiraginoSans-W3, Hiragino Sans">年中無休</tspan></text>
    <g id="グループ_518" data-name="グループ 518">
      <g id="グループ_517" data-name="グループ 517">
        <path id="パス_525" data-name="パス 525" d="M167.434,90.569c-.852.552-1.019,2.279-.7,3.687a12.731,12.731,0,0,0,1.681,3.951,13.235,13.235,0,0,0,2.922,3.146c1.154.867,2.8,1.419,3.651.866a4.3,4.3,0,0,0,1.1-1.179l-.458-.706-1.258-1.94c-.094-.144-.68-.013-.978.156a2.838,2.838,0,0,0-.772.839c-.276.159-.506,0-.989-.222a7.134,7.134,0,0,1-2.783-4.29c-.006-.531-.056-.807.2-.993a2.842,2.842,0,0,0,1.081-.363c.276-.2.635-.685.542-.829l-1.259-1.941-.457-.705A4.327,4.327,0,0,0,167.434,90.569Z" fill="#3a3a3a"/>
      </g>
    </g>
  </g>
</svg>
