<svg xmlns="http://www.w3.org/2000/svg" viewBox="0 0 279.57913 56.08301">
  <defs>
    <style>
      .cls-1 {
        fill: #333;
      }
    </style>
  </defs>
  <g id="レイヤー_2" data-name="レイヤー 2">
    <g id="header">
      <g>
        <path class="cls-1" d="M46.39652,16.36523q0,5.47413-2.459,8.44239a8.49415,8.49415,0,0,1-6.92969,2.96875,8.54009,8.54009,0,0,1-6.97656-2.98731q-2.46826-2.98681-2.46777-8.42383V11.42969q0-5.4734,2.458-8.44239A8.51841,8.51841,0,0,1,36.97073.01855a8.522,8.522,0,0,1,6.958,2.98731q2.4668,2.98755,2.46778,8.44238Zm-6.25293-5.73339a9.64118,9.64118,0,0,0-.76075-4.35108,2.54405,2.54405,0,0,0-2.41211-1.438,2.48389,2.48389,0,0,0-2.34765,1.33594,9.08331,9.08331,0,0,0-.78809,4.04492V17.126a9.69738,9.69738,0,0,0,.76074,4.42529,2.55129,2.55129,0,0,0,2.41211,1.40088,2.51922,2.51922,0,0,0,2.35645-1.36377,9.27557,9.27557,0,0,0,.7793-4.27686Z"/>
        <path class="cls-1" d="M68.42093,3.72949,58.32718,27.40527H51.72171L61.834,5.21387h-12.877V.38965H68.42093Z"/>
        <path class="cls-1" d="M86.753,0V4.917h-.27832a9.39308,9.39308,0,0,0-5.76172,1.6792,7.09177,7.09177,0,0,0-2.77344,4.66651,7.31265,7.31265,0,0,1,5.34375-2.07813,6.82087,6.82087,0,0,1,5.585,2.56055,10.33193,10.33193,0,0,1,2.07812,6.71679,9.45232,9.45232,0,0,1-1.21582,4.73145A8.66519,8.66519,0,0,1,86.336,26.561a9.75829,9.75829,0,0,1-4.834,1.21533,10.08142,10.08142,0,0,1-5.13964-1.30811A8.98644,8.98644,0,0,1,72.837,22.72949,12.29763,12.29763,0,0,1,71.53812,17.126V14.62109a15.60007,15.60007,0,0,1,1.79-7.50537,12.98287,12.98287,0,0,1,5.1123-5.22314A14.6124,14.6124,0,0,1,85.80667,0ZM81.11234,13.97168a3.57807,3.57807,0,0,0-2.07813.5752A3.64868,3.64868,0,0,0,77.79105,15.957v1.874q0,5.1211,3.54394,5.1211a2.87421,2.87421,0,0,0,2.38379-1.28027,5.21355,5.21355,0,0,0,.95606-3.21,5.12775,5.12775,0,0,0-.97364-3.23779A3.11777,3.11777,0,0,0,81.11234,13.97168Z"/>
        <path class="cls-1" d="M112.43265,3.72949,102.3389,27.40527H95.73343l10.1123-22.1914h-12.877V.38965h19.46387Z"/>
        <path class="cls-1" d="M127.98148,18.165H116.83011V13.34082h11.15137Z"/>
        <path class="cls-1" d="M133.12112,14.209,134.77249.38965h15.79V5.251H139.85648l-.61231,5.3667a7.39283,7.39283,0,0,1,1.75293-.68946,8.008,8.008,0,0,1,2.125-.29834,7.92517,7.92517,0,0,1,6.1875,2.38428,9.60357,9.60357,0,0,1,2.16211,6.689,9.58288,9.58288,0,0,1-1.16016,4.70362,7.96446,7.96446,0,0,1-3.25585,3.23779,10.28052,10.28052,0,0,1-4.95411,1.13184A11.06083,11.06083,0,0,1,137.333,26.729a8.55315,8.55315,0,0,1-3.48828-2.87353,6.97713,6.97713,0,0,1-1.24317-4.125h6.27149a3.545,3.545,0,0,0,.94629,2.35156,3.00292,3.00292,0,0,0,2.24511.87012q3.15381,0,3.1543-4.666,0-4.314-3.85937-4.31445a3.85033,3.85033,0,0,0-3.26563,1.40723Z"/>
        <path class="cls-1" d="M173.60745,27.40527H154.75589v-4.082l8.68359-9.1289q3.20947-3.6548,3.21-5.80762a4.04224,4.04224,0,0,0-.76075-2.65332,2.71747,2.71747,0,0,0-2.208-.90918,2.7496,2.7496,0,0,0-2.31934,1.21533,4.996,4.996,0,0,0-.89063,3.03369h-6.27148A8.87068,8.87068,0,0,1,155.44241,4.481a8.71259,8.71259,0,0,1,3.45118-3.29346A10.25277,10.25277,0,0,1,163.82913,0q4.37842,0,6.74414,2.02246a7.21794,7.21794,0,0,1,2.36621,5.80762,8.43816,8.43816,0,0,1-.59375,3.10791,13.61427,13.61427,0,0,1-1.84668,3.17285,46.31254,46.31254,0,0,1-4.03515,4.44385l-3.48828,4.02636h10.63183Z"/>
        <path class="cls-1" d="M189.08206,18.165H177.9307V13.34082h11.15136Z"/>
        <path class="cls-1" d="M212.07132,7.60742a6.24369,6.24369,0,0,1-.97363,3.46973,7.10453,7.10453,0,0,1-2.68164,2.41211,7.81188,7.81188,0,0,1,3.06152,2.58838,6.68436,6.68436,0,0,1,1.13184,3.8872,7.069,7.069,0,0,1-2.4961,5.71485,10.36055,10.36055,0,0,1-6.874,2.09668,10.55024,10.55024,0,0,1-6.93945-2.106,7.018,7.018,0,0,1-2.542-5.70557,6.76313,6.76313,0,0,1,1.11328-3.84082,7.5686,7.5686,0,0,1,3.1543-2.63476,7.13092,7.13092,0,0,1-2.709-2.41211,6.18736,6.18736,0,0,1-.9834-3.46973,6.93231,6.93231,0,0,1,2.39355-5.5664,11.29307,11.29307,0,0,1,12.95118,0A6.93231,6.93231,0,0,1,212.07132,7.60742Zm-5.7334,11.85645a3.56294,3.56294,0,0,0-.86328-2.56983,3.004,3.004,0,0,0-2.27246-.8999,3.035,3.035,0,0,0-2.28223.8999,3.54086,3.54086,0,0,0-.87207,2.56983,3.57235,3.57235,0,0,0,.88184,2.55127,3.0205,3.0205,0,0,0,2.30957.937,2.90658,2.90658,0,0,0,2.24512-.92774A3.64025,3.64025,0,0,0,206.33792,19.46387Zm-3.1543-14.63965a2.30862,2.30862,0,0,0-1.91992.82568,3.58259,3.58259,0,0,0-.65918,2.29151,3.79829,3.79829,0,0,0,.668,2.33789,2.30423,2.30423,0,0,0,1.9668.89062,2.21227,2.21227,0,0,0,1.9209-.89062,3.92445,3.92445,0,0,0,.63965-2.33789,3.58914,3.58914,0,0,0-.65918-2.28223A2.34091,2.34091,0,0,0,203.18362,4.82422Z"/>
        <path class="cls-1" d="M234.708,27.40527H215.85648v-4.082l8.68359-9.1289q3.20948-3.6548,3.21-5.80762a4.04229,4.04229,0,0,0-.76074-2.65332,2.71749,2.71749,0,0,0-2.208-.90918A2.7496,2.7496,0,0,0,222.462,6.03955a4.996,4.996,0,0,0-.89063,3.03369h-6.27148A8.87068,8.87068,0,0,1,216.543,4.481a8.71256,8.71256,0,0,1,3.45117-3.29346A10.25281,10.25281,0,0,1,224.92972,0q4.37841,0,6.74414,2.02246a7.218,7.218,0,0,1,2.36621,5.80762,8.43816,8.43816,0,0,1-.59375,3.10791,13.61427,13.61427,0,0,1-1.84668,3.17285,46.31293,46.31293,0,0,1-4.03516,4.44385l-3.48828,4.02636H234.708Z"/>
        <path class="cls-1" d="M251.72269,27.40527H245.4512V7.44043l-6.16015,1.7998v-4.75L251.14749.38965h.5752Z"/>
        <path class="cls-1" d="M260.23929,14.209,261.89066.38965h15.79V5.251H266.97464l-.6123,5.3667a7.39265,7.39265,0,0,1,1.75293-.68946,8.008,8.008,0,0,1,2.125-.29834,7.92519,7.92519,0,0,1,6.1875,2.38428,9.60361,9.60361,0,0,1,2.1621,6.689,9.58287,9.58287,0,0,1-1.16015,4.70362,7.96448,7.96448,0,0,1-3.25586,3.23779,10.28051,10.28051,0,0,1-4.9541,1.13184A11.0609,11.0609,0,0,1,264.4512,26.729a8.55321,8.55321,0,0,1-3.48828-2.87353,6.97705,6.97705,0,0,1-1.24316-4.125h6.27148a3.54512,3.54512,0,0,0,.94629,2.35156,3.00293,3.00293,0,0,0,2.24512.87012q3.15381,0,3.1543-4.666,0-4.314-3.85938-4.31445a3.8503,3.8503,0,0,0-3.26562,1.40723Z"/>
      </g>
      <g>
        <path class="cls-1" d="M87.333,54.68945a.89026.89026,0,0,1-.54688-.1582.59965.59965,0,0,1-.21093-.51172c0-.02344.00195-.07031.00879-.1416a.26456.26456,0,0,1,.02636-.123l2.92774-11.87109a1.62146,1.62146,0,0,1,.36133-.74024.96078.96078,0,0,1,.75-.28222.92708.92708,0,0,1,.76757.31738,1.89373,1.89373,0,0,1,.36133.77539l2.89258,11.80078a.26464.26464,0,0,1,.02637.123c.00586.07129.00879.11816.00879.1416a.60951.60951,0,0,1-.20313.51172.87938.87938,0,0,1-.55469.1582.68009.68009,0,0,1-.52929-.21191,1.10941,1.10941,0,0,1-.26465-.51074l-.72363-3.1045H88.8682L88.127,53.9668a1.11876,1.11876,0,0,1-.26464.51074A.68154.68154,0,0,1,87.333,54.68945ZM89.20316,49.416h2.875l-1.42871-6.06836Z"/>
        <path class="cls-1" d="M96.52347,54.68945a.5983.5983,0,0,1-.54688-.24707,1.087,1.087,0,0,1-.15918-.59961V42.36035a2.014,2.014,0,0,1,.26465-1.06738,1.04512,1.04512,0,0,1,.97071-.43164.94477.94477,0,0,1,.82031.35254,1.90281,1.90281,0,0,1,.32617.86425l1.46387,8.94239,1.46386-8.94239a2.04733,2.04733,0,0,1,.34375-.86425.94478.94478,0,0,1,.82032-.35254,1.01313,1.01313,0,0,1,.96093.44043,2.07286,2.07286,0,0,1,.25586,1.05859V53.84277a1.13573,1.13573,0,0,1-.14941.59961.73851.73851,0,0,1-1.10254,0,1.087,1.087,0,0,1-.15918-.59961V43.03027L100.3682,53.9668a1.2392,1.2392,0,0,1-.21094.502.56855.56855,0,0,1-.49414.2207.56183.56183,0,0,1-.48535-.20312,1.1848,1.1848,0,0,1-.20313-.502L97.22855,43.03027v10.8125a1.13574,1.13574,0,0,1-.14942.59961A.5962.5962,0,0,1,96.52347,54.68945Z"/>
        <path class="cls-1" d="M108.18265,54.68945a3.22765,3.22765,0,0,1-1.64942-.41406,2.91832,2.91832,0,0,1-1.13769-1.26172q-.123-.24609-.23828-.54687a1.62571,1.62571,0,0,1-.11426-.582.72556.72556,0,0,1,.8291-.81153.69109.69109,0,0,1,.582.22949,1.82947,1.82947,0,0,1,.28223.56446c.07031.22363.15039.45019.23828.67969a1.35926,1.35926,0,0,0,.41406.57324,1.32711,1.32711,0,0,0,.84668.22851,1.59562,1.59562,0,0,0,1.041-.34375,2.54289,2.54289,0,0,0,.6875-.89941,5.88408,5.88408,0,0,0,.415-1.19922,11.506,11.506,0,0,0,.2207-1.25293q.07032-.60791.08789-1.04883a4.48631,4.48631,0,0,1-1.19043,1.06739,2.90517,2.90517,0,0,1-1.54394.41406,2.46006,2.46006,0,0,1-1.46387-.41406,2.88062,2.88062,0,0,1-.917-1.09376,5.472,5.472,0,0,1-.47657-1.45507,8.32384,8.32384,0,0,1-.14062-1.48243,7.66705,7.66705,0,0,1,.19336-1.71093,5.03228,5.03228,0,0,1,.62695-1.543,3.49946,3.49946,0,0,1,4.542-1.11133,3.22621,3.22621,0,0,1,1.11036,1.12012,5.68247,5.68247,0,0,1,.63574,1.56054,11.59575,11.59575,0,0,1,.291,1.73829q.07911.88184.0791,1.65722,0,.86573-.0791,1.86133a12.39365,12.39365,0,0,1-.31738,1.9668,6.53548,6.53548,0,0,1-.706,1.76367,3.65405,3.65405,0,0,1-1.23438,1.27051A3.569,3.569,0,0,1,108.18265,54.68945Zm.1416-5.94433a1.85909,1.85909,0,0,0,.96973-.29981,3.77439,3.77439,0,0,0,.88183-.74023,2.92248,2.92248,0,0,0,.54688-.84668q0-.40577-.02637-1.00586a9.84334,9.84334,0,0,0-.13281-1.22559,5.44373,5.44373,0,0,0-.335-1.18164,2.38273,2.38273,0,0,0-.61719-.89941,1.43313,1.43313,0,0,0-.98731-.34473,1.54143,1.54143,0,0,0-1.041.335,2.123,2.123,0,0,0-.59082.85645,4.22608,4.22608,0,0,0-.26465,1.10156,10.30156,10.30156,0,0,0-.06152,1.07617q0,.42334.04394.96192a4.68165,4.68165,0,0,0,.20313,1.04,2.01248,2.01248,0,0,0,.49316.83789A1.23967,1.23967,0,0,0,108.32425,48.74512Z"/>
        <path class="cls-1" d="M117.72562,47.47559a1.17583,1.17583,0,0,1-.87305-.37012,1.21912,1.21912,0,0,1-.36133-.88281,1.13474,1.13474,0,0,1,.37891-.86426,1.24782,1.24782,0,0,1,.87305-.35254,1.16416,1.16416,0,0,1,.86425.36133,1.205,1.205,0,0,1,.35254.874,1.23366,1.23366,0,0,1-1.23437,1.23438Zm0,7.21386a1.17218,1.17218,0,0,1-.87305-.37011,1.21851,1.21851,0,0,1-.36133-.88184,1.13474,1.13474,0,0,1,.37891-.86426,1.2436,1.2436,0,0,1,.87305-.35254,1.16054,1.16054,0,0,1,.86425.36133,1.20434,1.20434,0,0,1,.35254.873,1.23366,1.23366,0,0,1-1.23437,1.23437Z"/>
        <path class="cls-1" d="M126.75687,54.68945a3.01072,3.01072,0,0,1-2.84864-1.64062,6.20966,6.20966,0,0,1-.59082-1.63965,11.78228,11.78228,0,0,1-.24707-1.82617q-.05272-.92579-.05273-1.71973t.06152-1.7373a14.15183,14.15183,0,0,1,.24707-1.86914,6.757,6.757,0,0,1,.53809-1.64942,2.934,2.934,0,0,1,1.19922-1.34082,3.62005,3.62005,0,0,1,1.76367-.40527,3.14309,3.14309,0,0,1,1.7373.44922,3.22724,3.22724,0,0,1,1.1377,1.38476,6.53431,6.53431,0,0,1,.50293,1.60547,15.91555,15.91555,0,0,1,.22949,1.81641q.06153.917.06152,1.69336,0,.79394-.05273,1.71972a12.90628,12.90628,0,0,1-.23828,1.835,6.11821,6.11821,0,0,1-.582,1.65723,3.22976,3.22976,0,0,1-1.09375,1.209A3.16531,3.16531,0,0,1,126.75687,54.68945Zm0-1.42871a1.25008,1.25008,0,0,0,.99609-.44043,3.106,3.106,0,0,0,.59082-1.1289,8.66451,8.66451,0,0,0,.30957-1.45508q.09668-.76758.11426-1.43848.01758-.66943.01758-1.05762t-.01758-1.05859a14.01436,14.01436,0,0,0-.11426-1.41992A7.92766,7.92766,0,0,0,128.335,43.833a3.04281,3.04281,0,0,0-.6084-1.11133,1.288,1.288,0,0,0-1.00488-.43164,1.23161,1.23161,0,0,0-.97949.44043,3.121,3.121,0,0,0-.59082,1.12891,8.12771,8.12771,0,0,0-.29981,1.44628q-.08788.75879-.10547,1.42872-.01757.67089-.01757,1.041,0,.38818.01757,1.05859a14.31478,14.31478,0,0,0,.11426,1.42872,8.664,8.664,0,0,0,.3086,1.44628,2.95749,2.95749,0,0,0,.59961,1.12012A1.26889,1.26889,0,0,0,126.75687,53.26074Z"/>
        <path class="cls-1" d="M135.78812,54.68945a3.01072,3.01072,0,0,1-2.84864-1.64062,6.20966,6.20966,0,0,1-.59082-1.63965,11.78228,11.78228,0,0,1-.24707-1.82617q-.05272-.92579-.05273-1.71973t.06152-1.7373a14.15183,14.15183,0,0,1,.24707-1.86914,6.757,6.757,0,0,1,.53809-1.64942,2.934,2.934,0,0,1,1.19922-1.34082,3.62005,3.62005,0,0,1,1.76367-.40527,3.14309,3.14309,0,0,1,1.7373.44922,3.22724,3.22724,0,0,1,1.1377,1.38476,6.53431,6.53431,0,0,1,.50293,1.60547,15.91555,15.91555,0,0,1,.22949,1.81641q.06153.917.06152,1.69336,0,.79394-.05273,1.71972a12.90628,12.90628,0,0,1-.23828,1.835,6.11821,6.11821,0,0,1-.582,1.65723,3.22976,3.22976,0,0,1-1.09375,1.209A3.16531,3.16531,0,0,1,135.78812,54.68945Zm0-1.42871a1.25008,1.25008,0,0,0,.99609-.44043,3.106,3.106,0,0,0,.59082-1.1289,8.66451,8.66451,0,0,0,.30957-1.45508q.09668-.76758.11426-1.43848.01758-.66943.01758-1.05762t-.01758-1.05859a14.01436,14.01436,0,0,0-.11426-1.41992,7.92766,7.92766,0,0,0-.31836-1.42871,3.04281,3.04281,0,0,0-.6084-1.11133A1.288,1.288,0,0,0,135.753,42.29a1.23161,1.23161,0,0,0-.97949.44043,3.121,3.121,0,0,0-.59082,1.12891,8.12771,8.12771,0,0,0-.29981,1.44628q-.08788.75879-.10547,1.42872-.01756.67089-.01757,1.041,0,.38818.01757,1.05859a14.31478,14.31478,0,0,0,.11426,1.42872,8.664,8.664,0,0,0,.3086,1.44628,2.95749,2.95749,0,0,0,.59961,1.12012A1.26889,1.26889,0,0,0,135.78812,53.26074Z"/>
        <path class="cls-1" d="M141.87405,48.41016a1.02394,1.02394,0,0,1-.54687-.14063.64674.64674,0,0,1,0-.98828,1.02394,1.02394,0,0,1,.54687-.14063h5.89063a1.02633,1.02633,0,0,1,.54687.14063.64672.64672,0,0,1,0,.98828,1.02633,1.02633,0,0,1-.54687.14063Z"/>
        <path class="cls-1" d="M150.88675,54.68945a.70262.70262,0,0,1-.64355-.291,1.30678,1.30678,0,0,1-.18458-.71387V42.501a1.38544,1.38544,0,0,1,1.39258-1.39356h1.99317q.60059,0,1.38476.08008a3.32052,3.32052,0,0,1,1.31446.37891,3.05071,3.05071,0,0,1,1.29589,1.34082,4.233,4.233,0,0,1,.39747,1.85156,3.87508,3.87508,0,0,1-1.00586,2.89258,4.03488,4.03488,0,0,1-2.91016,1.00586h-2.20508v5.02734a1.30678,1.30678,0,0,1-.18457.71387A.70439.70439,0,0,1,150.88675,54.68945Zm.8291-7.53125h1.64063a3.65631,3.65631,0,0,0,2.04589-.48535,2.17677,2.17677,0,0,0,.72364-1.93164,1.87147,1.87147,0,0,0-.67969-1.69336,3.34969,3.34969,0,0,0-1.84277-.44043h-1.18164a.62377.62377,0,0,0-.70606.70508Z"/>
        <path class="cls-1" d="M159.74222,54.68945a.5983.5983,0,0,1-.54688-.24707,1.087,1.087,0,0,1-.15918-.59961V42.36035a2.014,2.014,0,0,1,.26465-1.06738,1.04512,1.04512,0,0,1,.97071-.43164.94477.94477,0,0,1,.82031.35254,1.90281,1.90281,0,0,1,.32617.86425l1.46387,8.94239,1.46386-8.94239a2.04733,2.04733,0,0,1,.34375-.86425.94478.94478,0,0,1,.82032-.35254,1.01313,1.01313,0,0,1,.96093.44043,2.07286,2.07286,0,0,1,.25586,1.05859V53.84277a1.13573,1.13573,0,0,1-.14941.59961.73851.73851,0,0,1-1.10254,0,1.087,1.087,0,0,1-.15918-.59961V43.03027L163.587,53.9668a1.2392,1.2392,0,0,1-.21094.502.56855.56855,0,0,1-.49414.2207.56183.56183,0,0,1-.48535-.20312,1.1848,1.1848,0,0,1-.20313-.502L160.4473,43.03027v10.8125a1.13574,1.13574,0,0,1-.14942.59961A.5962.5962,0,0,1,159.74222,54.68945Z"/>
        <path class="cls-1" d="M170.21976,54.707q-.81153,0-.81153-.75781a.86665.86665,0,0,1,.03516-.25586c.02344-.07617.04688-.15625.07031-.23828q.07032-.17578.31836-.82031.24609-.64308.6084-1.59668.36036-.95215.77539-2.03711.41456-1.084.82031-2.15137.40577-1.06786.74121-1.958.334-.89062.53809-1.4375c.13477-.36426.20313-.55273.20313-.56445a.187.187,0,0,0-.08887-.18555.46862.46862,0,0,0-.21192-.04394h-4.05664a1.28043,1.28043,0,0,1-.66992-.168.79689.79689,0,0,1,0-1.2168,1.28966,1.28966,0,0,1,.66992-.168h5.23926q1.11036,0,1.11133,1.0586a1.23052,1.23052,0,0,1-.03613.2998,2.541,2.541,0,0,1-.08789.28223l-4.28614,11.18359a1.99545,1.99545,0,0,1-.32617.53711A.69069.69069,0,0,1,170.21976,54.707Z"/>
        <path class="cls-1" d="M180.94437,47.47559a1.17583,1.17583,0,0,1-.87305-.37012,1.21912,1.21912,0,0,1-.36133-.88281,1.13474,1.13474,0,0,1,.37891-.86426,1.24782,1.24782,0,0,1,.87305-.35254,1.16416,1.16416,0,0,1,.86425.36133,1.205,1.205,0,0,1,.35254.874,1.23366,1.23366,0,0,1-1.23437,1.23438Zm0,7.21386a1.17218,1.17218,0,0,1-.87305-.37011,1.21851,1.21851,0,0,1-.36133-.88184,1.13474,1.13474,0,0,1,.37891-.86426,1.2436,1.2436,0,0,1,.87305-.35254,1.16054,1.16054,0,0,1,.86425.36133,1.20434,1.20434,0,0,1,.35254.873,1.23366,1.23366,0,0,1-1.23437,1.23437Z"/>
        <path class="cls-1" d="M189.97562,54.68945a3.01072,3.01072,0,0,1-2.84864-1.64062,6.20966,6.20966,0,0,1-.59082-1.63965,11.78228,11.78228,0,0,1-.24707-1.82617q-.05272-.92579-.05273-1.71973t.06152-1.7373a14.15183,14.15183,0,0,1,.24707-1.86914,6.757,6.757,0,0,1,.53809-1.64942,2.934,2.934,0,0,1,1.19922-1.34082,3.62005,3.62005,0,0,1,1.76367-.40527,3.14309,3.14309,0,0,1,1.7373.44922,3.22724,3.22724,0,0,1,1.1377,1.38476,6.53431,6.53431,0,0,1,.50293,1.60547,15.91555,15.91555,0,0,1,.22949,1.81641q.06153.917.06152,1.69336,0,.79394-.05273,1.71972a12.90628,12.90628,0,0,1-.23828,1.835,6.11821,6.11821,0,0,1-.582,1.65723,3.22976,3.22976,0,0,1-1.09375,1.209A3.16531,3.16531,0,0,1,189.97562,54.68945Zm0-1.42871a1.25008,1.25008,0,0,0,.99609-.44043,3.106,3.106,0,0,0,.59082-1.1289,8.66451,8.66451,0,0,0,.30957-1.45508q.09668-.76758.11426-1.43848.01758-.66943.01758-1.05762t-.01758-1.05859a14.01436,14.01436,0,0,0-.11426-1.41992,7.92766,7.92766,0,0,0-.31836-1.42871,3.04281,3.04281,0,0,0-.6084-1.11133,1.288,1.288,0,0,0-1.00488-.43164,1.23161,1.23161,0,0,0-.97949.44043,3.121,3.121,0,0,0-.59082,1.12891,8.12771,8.12771,0,0,0-.29981,1.44628q-.08788.75879-.10547,1.42872-.01756.67089-.01757,1.041,0,.38818.01757,1.05859a14.31478,14.31478,0,0,0,.11426,1.42872,8.664,8.664,0,0,0,.3086,1.44628,2.95749,2.95749,0,0,0,.59961,1.12012A1.26889,1.26889,0,0,0,189.97562,53.26074Z"/>
        <path class="cls-1" d="M199.00687,54.68945a3.01072,3.01072,0,0,1-2.84864-1.64062,6.20966,6.20966,0,0,1-.59082-1.63965,11.78228,11.78228,0,0,1-.24707-1.82617q-.05272-.92579-.05273-1.71973t.06152-1.7373a14.15183,14.15183,0,0,1,.24707-1.86914,6.757,6.757,0,0,1,.53809-1.64942,2.934,2.934,0,0,1,1.19922-1.34082,3.62005,3.62005,0,0,1,1.76367-.40527,3.14309,3.14309,0,0,1,1.7373.44922,3.22724,3.22724,0,0,1,1.1377,1.38476,6.53431,6.53431,0,0,1,.50293,1.60547,15.91555,15.91555,0,0,1,.22949,1.81641q.06153.917.06152,1.69336,0,.79394-.05273,1.71972a12.90628,12.90628,0,0,1-.23828,1.835,6.11821,6.11821,0,0,1-.582,1.65723,3.22976,3.22976,0,0,1-1.09375,1.209A3.16531,3.16531,0,0,1,199.00687,54.68945Zm0-1.42871a1.25008,1.25008,0,0,0,.99609-.44043,3.106,3.106,0,0,0,.59082-1.1289,8.66451,8.66451,0,0,0,.30957-1.45508q.09668-.76758.11426-1.43848.01758-.66943.01758-1.05762t-.01758-1.05859a14.01436,14.01436,0,0,0-.11426-1.41992A7.92766,7.92766,0,0,0,200.585,43.833a3.04281,3.04281,0,0,0-.6084-1.11133,1.288,1.288,0,0,0-1.00488-.43164,1.23161,1.23161,0,0,0-.97949.44043,3.121,3.121,0,0,0-.59082,1.12891,8.12771,8.12771,0,0,0-.29981,1.44628q-.08788.75879-.10547,1.42872-.01756.67089-.01757,1.041,0,.38818.01757,1.05859a14.31478,14.31478,0,0,0,.11426,1.42872,8.664,8.664,0,0,0,.3086,1.44628,2.95749,2.95749,0,0,0,.59961,1.12012A1.26889,1.26889,0,0,0,199.00687,53.26074Z"/>
        <path class="cls-1" d="M218.09183,56.083a.6762.6762,0,0,1-.61719-.27344,1.23066,1.23066,0,0,1-.17578-.67871V52.044h-7.585a1.18894,1.18894,0,0,1-.65235-.168.83167.83167,0,0,1,0-1.2168,1.19724,1.19724,0,0,1,.65235-.168h1.71094V47.42285a2.60849,2.60849,0,0,1,.32617-1.41113A1.47125,1.47125,0,0,1,213.083,45.5h4.21582V42.88965h-4.86914q-.123.21093-.36133.6084-.2373.397-.55566.873-.31788.47608-.66993.90821a4.96144,4.96144,0,0,1-.68847.706,1.01361,1.01361,0,0,1-.61719.27344.71742.71742,0,0,1-.59082-.22949.95658.95658,0,0,1-.18457-.61719.91536.91536,0,0,1,.25488-.55566c.1709-.20606.30274-.36817.39746-.48536a12.69052,12.69052,0,0,0,1.45508-2.002,23.4711,23.4711,0,0,0,1.1377-2.19629,1.81762,1.81762,0,0,1,.35254-.51172.742.742,0,0,1,.54687-.21093,1.08968,1.08968,0,0,1,.59082.14941.60467.60467,0,0,1,.23828.55566,1.06238,1.06238,0,0,1-.09668.36133q-.09814.23877-.21191.46778c-.07715.15332-.13281.2705-.168.35253h10.54785a1.23818,1.23818,0,0,1,.6709.168.83165.83165,0,0,1,0,1.2168,1.22973,1.22973,0,0,1-.6709.168h-4.9209V45.5h4.35645a.77588.77588,0,1,1,0,1.55176h-4.35645v3.43945h5.50293a1.28445,1.28445,0,0,1,.67969.168.81356.81356,0,0,1,0,1.2168,1.27555,1.27555,0,0,1-.67969.168h-5.50293v3.08691a1.28072,1.28072,0,0,1-.167.67871A.676.676,0,0,1,218.09183,56.083Zm-5.09766-5.5918h4.30469V47.05176h-3.59863a.62407.62407,0,0,0-.70606.706Z"/>
        <path class="cls-1" d="M235.13089,56.083a.695.695,0,0,1-.61719-.25586,1.104,1.104,0,0,1-.17675-.64356V50.84473h-4.60352a2.4936,2.4936,0,0,1-1.50879-.38868,1.72849,1.72849,0,0,1-.51953-1.46386V44.5293a1.59814,1.59814,0,0,1,1.78125-1.834H234.337V40.36719a1.0933,1.0933,0,0,1,.17675-.65235.706.706,0,0,1,.61719-.24707.73239.73239,0,0,1,.626.24707,1.06172,1.06172,0,0,1,.18554.65235v2.32812h4.7793a2.50264,2.50264,0,0,1,1.50879.3877,1.73193,1.73193,0,0,1,.51953,1.46484v4.44434a1.614,1.614,0,0,1-1.79883,1.85254h-5.00879v4.33886a1.06369,1.06369,0,0,1-.18554.65235A.73239.73239,0,0,1,235.13089,56.083Zm-4.833-6.791H234.337V44.24805h-4.03907a.873.873,0,0,0-.98828.9873v3.06934A.873.873,0,0,0,230.29788,49.292Zm5.64453,0h4.21485a.873.873,0,0,0,.98828-.9873V45.23535a.873.873,0,0,0-.98828-.9873h-4.21485Z"/>
        <path class="cls-1" d="M246.15433,51.74414a1.00317,1.00317,0,0,1-.56446-.15039.70392.70392,0,0,1,0-1.04,1.00317,1.00317,0,0,1,.56446-.15039H247.583v-3.21h-1.87012a1.1499,1.1499,0,0,1-.582-.1416.55535.55535,0,0,1-.24609-.5293.57709.57709,0,0,1,.24609-.53711,1.097,1.097,0,0,1,.582-.15039H247.583V43.13672c-.082.09375-.209.23242-.37891.41406-.1709.18262-.3623.373-.57324.57324a6.393,6.393,0,0,1-.6084.51172.91555.91555,0,0,1-.50293.21192.56439.56439,0,0,1-.48535-.20313.85388.85388,0,0,1-.14941-.52051.58971.58971,0,0,1,.14941-.335,2.49278,2.49278,0,0,1,.34375-.36133c.12988-.1123.22363-.19726.28223-.25585a9.37056,9.37056,0,0,0,1.27929-1.32325,15.26618,15.26618,0,0,0,1.04883-1.5166,5.24282,5.24282,0,0,1,.43262-.56445.79446.79446,0,0,1,.6084-.31738,1.0649,1.0649,0,0,1,.51172.11425.46638.46638,0,0,1,.21191.4502.97449.97449,0,0,1-.13281.41406,4.94352,4.94352,0,0,1-.29981.50293,4.22779,4.22779,0,0,1-.27343.37012h11.165a1.28918,1.28918,0,0,1,.61816.1416.70273.70273,0,0,1,.02637,1.07519,1.13842,1.13842,0,0,1-.59082.14161H258.8721V45.835h1.79883a1.18451,1.18451,0,0,1,.59961.1416.57278.57278,0,0,1,.24707.5459.554.554,0,0,1-.24707.5293,1.18451,1.18451,0,0,1-.59961.1416H258.8721v3.21h1.35742a1.08661,1.08661,0,0,1,.582.1416.724.724,0,0,1,0,1.05762,1.08652,1.08652,0,0,1-.582.1416Zm-.14063,4.2334q-.81152,0-.81152-.77637a1.72252,1.72252,0,0,1,.14941-.37012c.09961-.21191.21778-.456.35254-.73242.13574-.27636.26172-.53515.37989-.77636.11718-.24024.19335-.39649.22949-.4668a.93772.93772,0,0,1,.291-.38867.72082.72082,0,0,1,.44922-.14063,1.09548,1.09548,0,0,1,.582.14063.57207.57207,0,0,1,.2295.52929,2.583,2.583,0,0,1-.168.77637,6.24387,6.24387,0,0,1-.44922,1.00488,4.40116,4.40116,0,0,1-.59961.85645A.89374.89374,0,0,1,246.0137,55.97754ZM248.90628,45.835h1.97559v-3.1748h-1.97559Zm0,4.56836h1.97559v-3.21h-1.97559Zm2.45117,5.48535a.77561.77561,0,0,1-.56445-.17578,1.12265,1.12265,0,0,1-.26465-.5293l-.458-1.94043a.48091.48091,0,0,1,.20215-.53808.9863.9863,0,0,1,.55567-.18457.63866.63866,0,0,1,.54687.26367,2.1683,2.1683,0,0,1,.29981.56445c.04687.10645.10937.27735.18554.51172q.11426.353.21192.70606a2.20808,2.20808,0,0,1,.09668.52929A.70934.70934,0,0,1,251.35745,55.88867Zm.84668-10.05371h1.97559v-3.1748h-1.97559Zm0,4.56836h1.97559v-3.21h-1.97559Zm3.38672,5.46777a.69165.69165,0,0,1-.55566-.2373,1.46586,1.46586,0,0,1-.291-.53809c-.03515-.09472-.08789-.23828-.1582-.43261-.07129-.19434-.14746-.39942-.22949-.61719q-.12452-.32667-.21192-.59082a1.45283,1.45283,0,0,1-.08789-.35254q0-.72363.75781-.72363a.65654.65654,0,0,1,.459.15918,1.35191,1.35191,0,0,1,.2998.40527c.0586.11816.15625.32324.291.61719s.25879.585.37012.873a2.00377,2.00377,0,0,1,.168.626A.71728.71728,0,0,1,255.59085,55.87109ZM255.503,45.835h2.0459v-3.1748H255.503Zm0,4.56836h2.0459v-3.21H255.503Zm4.85059,5.53906a.72254.72254,0,0,1-.46778-.15039,1.39132,1.39132,0,0,1-.32617-.39648c-.03515-.07129-.12109-.22949-.25586-.47656s-.28222-.51758-.44043-.81153q-.23877-.44091-.40625-.78515a1.91285,1.91285,0,0,1-.167-.39649.52888.52888,0,0,1,.25586-.52051,1.26931,1.26931,0,0,1,.59082-.13183.65643.65643,0,0,1,.4668.19336,2.08818,2.08818,0,0,1,.32617.38867c.05957.082.15625.22656.291.43164.13575.20605.2793.42969.43262.6709.15235.24121.28516.46679.39649.67871a1.17146,1.17146,0,0,1,.168.459A.75622.75622,0,0,1,260.35355,55.94238Z"/>
        <path class="cls-1" d="M266.1387,56.083a.62857.62857,0,0,1-.582-.25586,1.19556,1.19556,0,0,1-.15918-.64356v-8.625a5.45776,5.45776,0,0,0-.31738.51953c-.14063.25391-.29981.52344-.47656.81153a6.30665,6.30665,0,0,1-.52832.75q-.26514.31786-.459.31738a.54889.54889,0,0,1-.52929-.25586,1.20411,1.20411,0,0,1-.14063-.59082.9485.9485,0,0,1,.11426-.39648,4.96592,4.96592,0,0,1,.25586-.46778c.09375-.15234.16406-.2705.21191-.35254a28.89,28.89,0,0,0,1.70215-3.166,32.16075,32.16075,0,0,0,1.31348-3.34277,2.9546,2.9546,0,0,1,.291-.61719.62609.62609,0,0,1,.57324-.29981,1.12084,1.12084,0,0,1,.61719.15821.6186.6186,0,0,1,.24707.56445,1.87644,1.87644,0,0,1-.123.52051q-.12451.36182-.31739.81152-.19482.44972-.39746.89942c-.13476.2998-.25586.55859-.36133.77636s-.1709.35547-.19433.41406V55.18359a1.20421,1.20421,0,0,1-.15821.64356A.62961.62961,0,0,1,266.1387,56.083Zm7.126-.01758a.62075.62075,0,0,1-.582-.26465,1.242,1.242,0,0,1-.15918-.65234V47.29883a16.09875,16.09875,0,0,1-1.04981,2.21387,21.46917,21.46917,0,0,1-1.33105,2.05468c-.083.10645-.21191.27344-.38867.50293q-.26367.34423-.59082.71387a5.93961,5.93961,0,0,1-.64356.63574.92967.92967,0,0,1-.54687.26465.71742.71742,0,0,1-.59082-.22949.95685.95685,0,0,1-.18555-.61719.91719.91719,0,0,1,.23828-.59961,5.20151,5.20151,0,0,1,.4502-.47656,15.95783,15.95783,0,0,0,2.54882-3.11328,22.57208,22.57208,0,0,0,1.80762-3.58985h-3.58008a1.30309,1.30309,0,0,1-.66211-.1582.79416.79416,0,0,1,0-1.19922,1.2935,1.2935,0,0,1,.66211-.15918h3.86231V40.41992a1.399,1.399,0,0,1,.15039-.66992.60506.60506,0,0,1,.59082-.28223.62557.62557,0,0,1,.59961.28223,1.3461,1.3461,0,0,1,.1582.66992V43.542h4.26856a1.2935,1.2935,0,0,1,.66211.15918.79416.79416,0,0,1,0,1.19922,1.30309,1.30309,0,0,1-.66211.1582h-4.02149a14.21966,14.21966,0,0,0,2.04688,3.68653,27.98354,27.98354,0,0,0,2.82129,3.12207,3.38961,3.38961,0,0,1,.2998.34375.693.693,0,0,1,.1416.43261.98463.98463,0,0,1-.19433.64356.74832.74832,0,0,1-.61719.23828.908.908,0,0,1-.51172-.22949,5.21328,5.21328,0,0,1-.61719-.56445q-.31786-.334-.57324-.64356-.25635-.30762-.37891-.45019a17.99627,17.99627,0,0,1-1.47265-2.11622,22.365,22.365,0,0,1-1.19141-2.293v7.91992a1.25116,1.25116,0,0,1-.1582.65234A.63978.63978,0,0,1,273.26468,56.06543Z"/>
      </g>
      <path class="cls-1" d="M1.88862,3.1212c-1.893,1.22769-2.26485,5.06525-1.55016,8.193a28.25129,28.25129,0,0,0,3.73538,8.77964,29.33956,29.33956,0,0,0,6.493,6.99122c2.56435,1.92806,6.21993,3.1536,8.11291,1.92591a9.58646,9.58646,0,0,0,2.44419-2.62122l-1.01692-1.568-2.79653-4.31194c-.20781-.32043-1.51105-.02755-2.17311.34744A6.30379,6.30379,0,0,0,13.42186,22.721c-.61234.35379-1.12524.00129-2.19688-.49191-1.31707-.606-2.79788-2.48886-3.97645-4.19421-1.07643-1.77153-2.19172-3.89153-2.20786-5.34123-.01329-1.17959-.126-1.79161.44682-2.20647A6.304,6.304,0,0,0,7.8888,9.68087c.61239-.45156,1.41129-1.522,1.20348-1.8425L6.29575,3.52648l-1.01693-1.568A9.58742,9.58742,0,0,0,1.88862,3.1212Z"/>
    </g>
  </g>
</svg>
