<svg xmlns="http://www.w3.org/2000/svg" viewBox="0 0 326.55469 115.83984">
  <defs>
    <style>
      .cls-1 {
        opacity: 0.2;
      }

      .cls-2 {
        fill: #67a6aa;
      }
    </style>
  </defs>
  <g id="レイヤー_2" data-name="レイヤー 2">
    <g id="txt">
      <g class="cls-1">
        <g>
          <path class="cls-2" d="M0,114.87988V.96H15.68018L40.31982,69.59961h.32032V.96H56.96V114.87988H41.6001l-24.96-68.48047h-.32032v68.48047Z"/>
          <path class="cls-2" d="M87.67773,114.87988V.96h48.63965V16.32031H103.99756V49.75977h28.16015V65.12012H103.99756V98.55957h32.31982v16.32031Z"/>
          <path class="cls-2" d="M247.5166.96l-16.96,113.91992H215.19678L202.7168,40.96H202.397l-12.32031,73.91992H174.7168L157.75684.96h17.27978l8.16016,72.32031h.31982L196.31689.96h12.48L222.07666,75.04h.32031L230.23682.96Z"/>
          <path class="cls-2" d="M326.55469,33.75977H310.23486V30.08008a17.43316,17.43316,0,0,0-2.64013-9.68067q-2.64039-4.07958-8.87989-4.0791a10.26948,10.26948,0,0,0-5.43994,1.2793,10.73171,10.73171,0,0,0-3.36035,3.20019,13.50521,13.50521,0,0,0-1.75976,4.71973,30.79882,30.79882,0,0,0-.48,5.52051,54.17246,54.17246,0,0,0,.23975,5.59961,10.61354,10.61354,0,0,0,1.2002,4,8.8687,8.8687,0,0,0,2.7998,3.04,25.47441,25.47441,0,0,0,5.04,2.56054l12.48,4.96a31.00656,31.00656,0,0,1,8.80029,4.87988,21.11432,21.11432,0,0,1,5.27979,6.47949,30.35283,30.35283,0,0,1,2.3999,8.7207,86.55033,86.55033,0,0,1,.64014,11.11914,58.62206,58.62206,0,0,1-1.43994,13.36036,28.14786,28.14786,0,0,1-4.64014,10.48046,23.0212,23.0212,0,0,1-8.79981,7.04,31.07349,31.07349,0,0,1-13.28027,2.55957,29.0832,29.0832,0,0,1-11.04-2.08007A26.18305,26.18305,0,0,1,278.55469,108a27.957,27.957,0,0,1-5.83985-8.56055,25.98738,25.98738,0,0,1-2.16015-10.63965V82.71973h16.31982v5.12011a13.332,13.332,0,0,0,2.64014,8.08008q2.64038,3.60059,8.87988,3.59961a14.32778,14.32778,0,0,0,6.48-1.19922,8.62663,8.62663,0,0,0,3.6001-3.44043,12.64373,12.64373,0,0,0,1.52-5.36035q.24024-3.12012.24023-6.96a69.08854,69.08854,0,0,0-.32031-7.35937,12.71175,12.71175,0,0,0-1.27978-4.64063,9.04651,9.04651,0,0,0-2.96-2.87988,38.47315,38.47315,0,0,0-4.87988-2.39942l-11.68017-4.80078Q278.55469,56.15967,274.95459,49.04q-3.59985-7.11768-3.6001-17.83984A41.3434,41.3434,0,0,1,273.11475,19.04a27.64566,27.64566,0,0,1,5.27978-9.91992,24.22914,24.22914,0,0,1,8.56006-6.64063A28.58166,28.58166,0,0,1,299.35449,0a27.08076,27.08076,0,0,1,11.12012,2.24023,28.70379,28.70379,0,0,1,8.72021,5.91993,24.72906,24.72906,0,0,1,7.35987,17.59961Z"/>
        </g>
      </g>
    </g>
  </g>
</svg>
