<svg xmlns="http://www.w3.org/2000/svg" viewBox="0 0 632.46875 115.83984">
  <defs>
    <style>
      .cls-1 {
        opacity: 0.5;
      }

      .cls-2 {
        fill: #fff;
      }
    </style>
  </defs>
  <g id="レイヤー_2" data-name="レイヤー 2">
    <g id="txt">
      <g class="cls-1">
        <g>
          <path class="cls-2" d="M0,114.87988V.96H24.48047A36.43909,36.43909,0,0,1,36.32031,2.71973,22.76557,22.76557,0,0,1,45.60059,8.96a24.41969,24.41969,0,0,1,5.75976,10.47949q1.59815,6,1.59961,16.24024a80.74962,80.74962,0,0,1-.87988,12.96,27.08732,27.08732,0,0,1-3.75977,9.91992,23.81686,23.81686,0,0,1-8.96,8.7207q-5.603,3.12012-14.71973,3.11914H16.32031v44.48047ZM16.32031,16.32031V55.04h7.83985a16.68539,16.68539,0,0,0,7.67968-1.44043,9.06492,9.06492,0,0,0,4-4,14.6305,14.6305,0,0,0,1.52051-5.91992q.24024-3.51709.24024-7.83985,0-3.99756-.16016-7.59961A16.47975,16.47975,0,0,0,36,21.91992a9.10418,9.10418,0,0,0-3.83984-4.16015,15.24491,15.24491,0,0,0-7.35938-1.43946Z"/>
          <path class="cls-2" d="M81.11914,114.87988V.96h48.64063V16.32031H97.43945V49.75977h28.16016V65.12012H97.43945V98.55957h32.32032v16.32031Z"/>
          <path class="cls-2" d="M167.03906,114.87988V16.32031H148.1582V.96h54.08008V16.32031H183.3584v98.55957Z"/>
          <path class="cls-2" d="M271.19336,114.87988V.96h16.32031V49.75977h20.16016V.96h16.32031V114.87988H307.67383V64.16016H287.51367v50.71972Z"/>
          <path class="cls-2" d="M354.39258,27.83984A29.10514,29.10514,0,0,1,356.793,15.67969a25.69838,25.69838,0,0,1,6.39941-8.79981,27.07233,27.07233,0,0,1,8.72071-5.12011,29.04337,29.04337,0,0,1,28.55957,5.12011,26.79288,26.79288,0,0,1,6.24023,8.79981,29.12051,29.12051,0,0,1,2.40039,12.16015V88a28.84851,28.84851,0,0,1-2.40039,12.32031,25.38759,25.38759,0,0,1-6.24023,8.47949,27.4186,27.4186,0,0,1-8.87989,5.28028,28.39,28.39,0,0,1-19.67968,0,25.64392,25.64392,0,0,1-8.72071-5.28028,24.40134,24.40134,0,0,1-6.39941-8.47949A28.8338,28.8338,0,0,1,354.39258,88ZM370.71289,88q0,5.92091,3.28027,8.71973a12.15317,12.15317,0,0,0,15.51954,0Q392.791,93.92187,392.793,88V27.83984q0-5.918-3.28027-8.71972a12.15314,12.15314,0,0,0-15.51954,0q-3.28125,2.80077-3.28027,8.71972Z"/>
          <path class="cls-2" d="M450.23242,114.87988V16.32031H431.35156V.96h54.08008V16.32031H466.55176v98.55957Z"/>
          <path class="cls-2" d="M508.62891,114.87988V.96h48.64062V16.32031H524.94922V49.75977h28.16016V65.12012H524.94922V98.55957h32.32031v16.32031Z"/>
          <path class="cls-2" d="M583.82812,114.87988V.96h16.32032V98.55957h32.32031v16.32031Z"/>
        </g>
      </g>
    </g>
  </g>
</svg>
