<svg xmlns="http://www.w3.org/2000/svg" viewBox="0 0 609.43311 115.83984">
  <defs>
    <style>
      .cls-1 {
        opacity: 0.2;
      }

      .cls-2 {
        fill: #67a6aa;
      }
    </style>
  </defs>
  <g id="レイヤー_2" data-name="レイヤー 2">
    <g id="txt">
      <g class="cls-1">
        <path class="cls-2" d="M18.87988,114.87988V16.32031H0V.96H54.07959V16.32031H35.2002v98.55957Z"/>
        <path class="cls-2" d="M77.27783,114.87988V.96h26.24024q28.80029,0,28.7998,33.43945,0,10.08106-3.12012,17.12012-3.12011,7.043-10.96,11.36035l17.60059,52H118.55811l-15.2002-48.63965H93.59814v48.63965ZM93.59814,16.32031V51.83984h9.28028a16.42761,16.42761,0,0,0,6.87988-1.20019,9.34524,9.34524,0,0,0,4-3.43945,15.65769,15.65769,0,0,0,1.75977-5.52051,53.00106,53.00106,0,0,0,.48047-7.59961,53.04444,53.04444,0,0,0-.48047-7.60059,15.22426,15.22426,0,0,0-1.91993-5.67969q-3.041-4.478-11.51953-4.47949Z"/>
        <path class="cls-2" d="M161.91748,114.87988V.96h16.32031V114.87988Z"/>
        <path class="cls-2" d="M210.07666,114.87988V.96h15.68066l20.96,60.32031h.31933L267.8374.96h15.83985V114.87988H267.35693V45.59961h-.32031l-16.15918,48.96h-8.16015l-16-48.96H226.397v69.28027Z"/>
        <path class="cls-2" d="M315.03662,114.87988V.96h15.68067l20.96,60.32031h.31933L372.79736.96h15.83985V114.87988H372.31689V45.59961h-.32031l-16.15918,48.96h-8.16015l-16-48.96h-.32032v69.28027Z"/>
        <path class="cls-2" d="M420.47705,114.87988V.96h16.32031V114.87988Z"/>
        <path class="cls-2" d="M467.99561,114.87988V.96h15.67968l24.64063,68.63965h.31933V.96h16.32032V114.87988H509.59521l-24.96-68.48047h-.31933v68.48047Z"/>
        <path class="cls-2" d="M554.7124,27.83984a29.1053,29.1053,0,0,1,2.40039-12.16015,25.69827,25.69827,0,0,1,6.39942-8.79981,27.07229,27.07229,0,0,1,8.7207-5.12011,29.04335,29.04335,0,0,1,28.55957,5.12011,26.79259,26.79259,0,0,1,6.24023,8.79981,29.12051,29.12051,0,0,1,2.4004,12.16015v5.75977H593.11279V27.83984q0-5.918-3.28027-8.71972a12.15313,12.15313,0,0,0-15.51953,0q-3.28125,2.80077-3.28028,8.71972V88q0,5.92091,3.28028,8.71973a12.15316,12.15316,0,0,0,15.51953,0Q593.11084,93.92187,593.11279,88V66.55957h-12.96V52.16016h29.28028V88a28.8485,28.8485,0,0,1-2.4004,12.32031,25.38732,25.38732,0,0,1-6.24023,8.47949,27.41845,27.41845,0,0,1-8.87988,5.28028,28.39,28.39,0,0,1-19.67969,0,25.64388,25.64388,0,0,1-8.7207-5.28028,24.40124,24.40124,0,0,1-6.39942-8.47949A28.834,28.834,0,0,1,554.7124,88Z"/>
      </g>
    </g>
  </g>
</svg>
