<svg xmlns="http://www.w3.org/2000/svg" viewBox="0 0 529.91602 115.83984">
  <defs>
    <style>
      .cls-1 {
        opacity: 0.3;
      }

      .cls-2 {
        fill: #fff;
      }
    </style>
  </defs>
  <g id="レイヤー_2" data-name="レイヤー 2">
    <g id="txt">
      <g class="cls-1">
        <g>
          <path class="cls-2" d="M0,27.83984A29.10514,29.10514,0,0,1,2.40039,15.67969,25.69838,25.69838,0,0,1,8.7998,6.87988a27.07233,27.07233,0,0,1,8.72071-5.12011A29.04335,29.04335,0,0,1,46.08008,6.87988a26.79288,26.79288,0,0,1,6.24023,8.79981A29.12051,29.12051,0,0,1,54.7207,27.83984v5.75977H38.40039V27.83984q0-5.918-3.28027-8.71972a11.579,11.579,0,0,0-7.75977-2.79981,11.57,11.57,0,0,0-7.75976,2.79981q-3.28125,2.80077-3.28028,8.71972V88q0,5.92091,3.28028,8.71973a11.56028,11.56028,0,0,0,7.75976,2.7998,11.56922,11.56922,0,0,0,7.75977-2.7998Q38.39843,93.92187,38.40039,88V66.55957h-12.96V52.16016H54.7207V88a28.84851,28.84851,0,0,1-2.40039,12.32031,25.38759,25.38759,0,0,1-6.24023,8.47949,27.41855,27.41855,0,0,1-8.87988,5.28028,28.39,28.39,0,0,1-19.67969,0A25.64392,25.64392,0,0,1,8.7998,108.7998a24.40134,24.40134,0,0,1-6.39941-8.47949A28.8338,28.8338,0,0,1,0,88Z"/>
          <path class="cls-2" d="M77.75977,114.87988,103.19922.96H116.7998l25.43946,113.91992H125.91992l-4.80078-24.48047H98.87988L94.0791,114.87988ZM118.0791,75.04l-8-41.28027h-.31933l-8,41.28027Z"/>
          <path class="cls-2" d="M166.23926,114.87988V.96h16.32031V98.55957h32.32031v16.32031Z"/>
          <path class="cls-2" d="M241.43848,114.87988V.96h16.32031V98.55957H290.0791v16.32031Z"/>
          <path class="cls-2" d="M316.6377,114.87988V.96h48.64062V16.32031H332.958V49.75977h28.16015V65.12012H332.958V98.55957h32.32031v16.32031Z"/>
          <path class="cls-2" d="M391.83691,114.87988V.96h26.24024q28.80028,0,28.7998,33.43945,0,10.08106-3.12011,17.12012-3.12012,7.043-10.96,11.36035l17.60058,52H433.11719L417.917,66.24023h-9.75976v48.63965Zm16.32032-98.55957V51.83984h9.28027a16.42758,16.42758,0,0,0,6.87988-1.20019,9.34524,9.34524,0,0,0,4-3.43945,15.65749,15.65749,0,0,0,1.75977-5.52051,53.00106,53.00106,0,0,0,.48047-7.59961,53.04444,53.04444,0,0,0-.48047-7.60059,15.22425,15.22425,0,0,0-1.91992-5.67969q-3.041-4.478-11.51953-4.47949Z"/>
          <path class="cls-2" d="M491.19629,114.87988V66.71973L468.79688.96h17.27929l13.12012,45.28027h.32031L512.63672.96H529.916L507.5166,66.71973v48.16015Z"/>
        </g>
      </g>
    </g>
  </g>
</svg>
